<svg width="125" height="18" viewBox="0 0 125 18" fill="none" xmlns="http://www.w3.org/2000/svg">
<path opacity="0.8" d="M1.98933 11.799H5.74933V13.271H0.165332V2.151H1.98933V11.799ZM15.2587 4.455V13.271H13.4347V12.231C13.1467 12.5937 12.768 12.8817 12.2987 13.095C11.84 13.2977 11.3494 13.399 10.8267 13.399C10.1334 13.399 9.50937 13.255 8.95471 12.967C8.41071 12.679 7.97871 12.2523 7.65871 11.687C7.34937 11.1217 7.19471 10.439 7.19471 9.639V4.455H9.00271V9.367C9.00271 10.1563 9.20004 10.7643 9.59471 11.191C9.98937 11.607 10.528 11.815 11.2107 11.815C11.8934 11.815 12.432 11.607 12.8267 11.191C13.232 10.7643 13.4347 10.1563 13.4347 9.367V4.455H15.2587ZM21.2173 4.311C21.9 4.311 22.5027 4.44966 23.0253 4.727C23.5587 4.99366 23.9747 5.32966 24.2733 5.735V4.455H26.1133V13.415C26.1133 14.2257 25.9427 14.9457 25.6013 15.575C25.26 16.215 24.764 16.7163 24.1133 17.079C23.4733 17.4417 22.7053 17.623 21.8093 17.623C20.6147 17.623 19.6227 17.3403 18.8333 16.775C18.044 16.2203 17.596 15.463 17.4893 14.503H19.2973C19.436 14.9617 19.7293 15.3297 20.1773 15.607C20.636 15.895 21.18 16.039 21.8093 16.039C22.5453 16.039 23.1373 15.815 23.5853 15.367C24.044 14.919 24.2733 14.2683 24.2733 13.415V11.943C23.964 12.359 23.5427 12.711 23.0093 12.999C22.4867 13.2763 21.8893 13.415 21.2173 13.415C20.4493 13.415 19.7453 13.223 19.1053 12.839C18.476 12.4443 17.9747 11.9003 17.6013 11.207C17.2387 10.503 17.0573 9.70833 17.0573 8.823C17.0573 7.93766 17.2387 7.15366 17.6013 6.471C17.9747 5.78833 18.476 5.26033 19.1053 4.887C19.7453 4.503 20.4493 4.311 21.2173 4.311ZM24.2733 8.855C24.2733 8.247 24.1453 7.719 23.8893 7.271C23.644 6.823 23.3187 6.48166 22.9133 6.247C22.508 6.01233 22.0707 5.895 21.6013 5.895C21.132 5.895 20.6947 6.01233 20.2893 6.247C19.884 6.471 19.5533 6.807 19.2973 7.255C19.052 7.69233 18.9293 8.215 18.9293 8.823C18.9293 9.431 19.052 9.96433 19.2973 10.423C19.5533 10.8817 19.884 11.2337 20.2893 11.479C20.7053 11.7137 21.1427 11.831 21.6013 11.831C22.0707 11.831 22.508 11.7137 22.9133 11.479C23.3187 11.2443 23.644 10.903 23.8893 10.455C24.1453 9.99633 24.2733 9.463 24.2733 8.855ZM32.0611 4.311C32.7437 4.311 33.3464 4.44966 33.8691 4.727C34.4024 4.99366 34.8184 5.32966 35.1171 5.735V4.455H36.9571V13.415C36.9571 14.2257 36.7864 14.9457 36.4451 15.575C36.1037 16.215 35.6077 16.7163 34.9571 17.079C34.3171 17.4417 33.5491 17.623 32.6531 17.623C31.4584 17.623 30.4664 17.3403 29.6771 16.775C28.8877 16.2203 28.4397 15.463 28.3331 14.503H30.1411C30.2797 14.9617 30.5731 15.3297 31.0211 15.607C31.4797 15.895 32.0237 16.039 32.6531 16.039C33.3891 16.039 33.9811 15.815 34.4291 15.367C34.8877 14.919 35.1171 14.2683 35.1171 13.415V11.943C34.8077 12.359 34.3864 12.711 33.8531 12.999C33.3304 13.2763 32.7331 13.415 32.0611 13.415C31.2931 13.415 30.5891 13.223 29.9491 12.839C29.3197 12.4443 28.8184 11.9003 28.4451 11.207C28.0824 10.503 27.9011 9.70833 27.9011 8.823C27.9011 7.93766 28.0824 7.15366 28.4451 6.471C28.8184 5.78833 29.3197 5.26033 29.9491 4.887C30.5891 4.503 31.2931 4.311 32.0611 4.311ZM35.1171 8.855C35.1171 8.247 34.9891 7.719 34.7331 7.271C34.4877 6.823 34.1624 6.48166 33.7571 6.247C33.3517 6.01233 32.9144 5.895 32.4451 5.895C31.9757 5.895 31.5384 6.01233 31.1331 6.247C30.7277 6.471 30.3971 6.807 30.1411 7.255C29.8957 7.69233 29.7731 8.215 29.7731 8.823C29.7731 9.431 29.8957 9.96433 30.1411 10.423C30.3971 10.8817 30.7277 11.2337 31.1331 11.479C31.5491 11.7137 31.9864 11.831 32.4451 11.831C32.9144 11.831 33.3517 11.7137 33.7571 11.479C34.1624 11.2443 34.4877 10.903 34.7331 10.455C34.9891 9.99633 35.1171 9.463 35.1171 8.855ZM38.7448 8.823C38.7448 7.93766 38.9262 7.15366 39.2888 6.471C39.6622 5.78833 40.1635 5.26033 40.7928 4.887C41.4328 4.503 42.1368 4.311 42.9048 4.311C43.5982 4.311 44.2008 4.44966 44.7128 4.727C45.2355 4.99366 45.6515 5.32966 45.9608 5.735V4.455H47.8008V13.271H45.9608V11.959C45.6515 12.375 45.2302 12.7217 44.6968 12.999C44.1635 13.2763 43.5555 13.415 42.8728 13.415C42.1155 13.415 41.4222 13.223 40.7928 12.839C40.1635 12.4443 39.6622 11.9003 39.2888 11.207C38.9262 10.503 38.7448 9.70833 38.7448 8.823ZM45.9608 8.855C45.9608 8.247 45.8328 7.719 45.5768 7.271C45.3315 6.823 45.0062 6.48166 44.6008 6.247C44.1955 6.01233 43.7582 5.895 43.2888 5.895C42.8195 5.895 42.3822 6.01233 41.9768 6.247C41.5715 6.471 41.2408 6.807 40.9848 7.255C40.7395 7.69233 40.6168 8.215 40.6168 8.823C40.6168 9.431 40.7395 9.96433 40.9848 10.423C41.2408 10.8817 41.5715 11.2337 41.9768 11.479C42.3928 11.7137 42.8302 11.831 43.2888 11.831C43.7582 11.831 44.1955 11.7137 44.6008 11.479C45.0062 11.2443 45.3315 10.903 45.5768 10.455C45.8328 9.99633 45.9608 9.463 45.9608 8.855ZM53.7486 4.311C54.4312 4.311 55.0339 4.44966 55.5566 4.727C56.0899 4.99366 56.5059 5.32966 56.8046 5.735V4.455H58.6446V13.415C58.6446 14.2257 58.4739 14.9457 58.1326 15.575C57.7912 16.215 57.2952 16.7163 56.6446 17.079C56.0046 17.4417 55.2366 17.623 54.3406 17.623C53.1459 17.623 52.1539 17.3403 51.3646 16.775C50.5752 16.2203 50.1272 15.463 50.0206 14.503H51.8286C51.9672 14.9617 52.2606 15.3297 52.7086 15.607C53.1672 15.895 53.7112 16.039 54.3406 16.039C55.0766 16.039 55.6686 15.815 56.1166 15.367C56.5752 14.919 56.8046 14.2683 56.8046 13.415V11.943C56.4952 12.359 56.0739 12.711 55.5406 12.999C55.0179 13.2763 54.4206 13.415 53.7486 13.415C52.9806 13.415 52.2766 13.223 51.6366 12.839C51.0072 12.4443 50.5059 11.9003 50.1326 11.207C49.7699 10.503 49.5886 9.70833 49.5886 8.823C49.5886 7.93766 49.7699 7.15366 50.1326 6.471C50.5059 5.78833 51.0072 5.26033 51.6366 4.887C52.2766 4.503 52.9806 4.311 53.7486 4.311ZM56.8046 8.855C56.8046 8.247 56.6766 7.719 56.4206 7.271C56.1752 6.823 55.8499 6.48166 55.4446 6.247C55.0392 6.01233 54.6019 5.895 54.1326 5.895C53.6632 5.895 53.2259 6.01233 52.8206 6.247C52.4152 6.471 52.0846 6.807 51.8286 7.255C51.5832 7.69233 51.4606 8.215 51.4606 8.823C51.4606 9.431 51.5832 9.96433 51.8286 10.423C52.0846 10.8817 52.4152 11.2337 52.8206 11.479C53.2366 11.7137 53.6739 11.831 54.1326 11.831C54.6019 11.831 55.0392 11.7137 55.4446 11.479C55.8499 11.2443 56.1752 10.903 56.4206 10.455C56.6766 9.99633 56.8046 9.463 56.8046 8.855ZM69.1203 8.647C69.1203 8.97766 69.099 9.27633 69.0563 9.543H62.3203C62.3737 10.247 62.635 10.8123 63.1043 11.239C63.5737 11.6657 64.1497 11.879 64.8323 11.879C65.8137 11.879 66.507 11.4683 66.9123 10.647H68.8803C68.6137 11.4577 68.1283 12.1243 67.4243 12.647C66.731 13.159 65.867 13.415 64.8323 13.415C63.9897 13.415 63.2323 13.2283 62.5603 12.855C61.899 12.471 61.3763 11.9377 60.9923 11.255C60.619 10.5617 60.4323 9.76166 60.4323 8.855C60.4323 7.94833 60.6137 7.15366 60.9763 6.471C61.3497 5.77766 61.867 5.24433 62.5283 4.871C63.2003 4.49766 63.9683 4.311 64.8323 4.311C65.6643 4.311 66.4057 4.49233 67.0563 4.855C67.707 5.21766 68.2137 5.72966 68.5763 6.391C68.939 7.04166 69.1203 7.79366 69.1203 8.647ZM67.2163 8.071C67.2057 7.399 66.9657 6.86033 66.4963 6.455C66.027 6.04966 65.4457 5.847 64.7523 5.847C64.123 5.847 63.5843 6.04966 63.1363 6.455C62.6883 6.84966 62.4217 7.38833 62.3363 8.071H67.2163ZM80.1436 13.383C79.1089 13.383 78.1542 13.143 77.2796 12.663C76.4156 12.1723 75.7276 11.495 75.2156 10.631C74.7142 9.75633 74.4636 8.775 74.4636 7.687C74.4636 6.599 74.7142 5.623 75.2156 4.759C75.7276 3.895 76.4156 3.223 77.2796 2.743C78.1542 2.25233 79.1089 2.007 80.1436 2.007C81.1889 2.007 82.1436 2.25233 83.0076 2.743C83.8822 3.223 84.5702 3.895 85.0716 4.759C85.5729 5.623 85.8236 6.599 85.8236 7.687C85.8236 8.775 85.5729 9.75633 85.0716 10.631C84.5702 11.495 83.8822 12.1723 83.0076 12.663C82.1436 13.143 81.1889 13.383 80.1436 13.383ZM80.1436 11.799C80.8796 11.799 81.5356 11.6337 82.1116 11.303C82.6876 10.9617 83.1356 10.4817 83.4556 9.863C83.7862 9.23366 83.9516 8.50833 83.9516 7.687C83.9516 6.86566 83.7862 6.14566 83.4556 5.527C83.1356 4.90833 82.6876 4.43366 82.1116 4.103C81.5356 3.77233 80.8796 3.607 80.1436 3.607C79.4076 3.607 78.7516 3.77233 78.1756 4.103C77.5996 4.43366 77.1462 4.90833 76.8156 5.527C76.4956 6.14566 76.3356 6.86566 76.3356 7.687C76.3356 8.50833 76.4956 9.23366 76.8156 9.863C77.1462 10.4817 77.5996 10.9617 78.1756 11.303C78.7516 11.6337 79.4076 11.799 80.1436 11.799ZM92.0665 4.311C92.7598 4.311 93.3785 4.455 93.9225 4.743C94.4771 5.031 94.9091 5.45766 95.2185 6.023C95.5278 6.58833 95.6825 7.271 95.6825 8.071V13.271H93.8745V8.343C93.8745 7.55366 93.6771 6.951 93.2825 6.535C92.8878 6.10833 92.3491 5.895 91.6665 5.895C90.9838 5.895 90.4398 6.10833 90.0345 6.535C89.6398 6.951 89.4425 7.55366 89.4425 8.343V13.271H87.6185V4.455H89.4425V5.463C89.7411 5.10033 90.1198 4.81766 90.5785 4.615C91.0478 4.41233 91.5438 4.311 92.0665 4.311ZM99.8331 1.431V13.271H98.0091V1.431H99.8331ZM103.156 3.287C102.825 3.287 102.548 3.175 102.324 2.951C102.1 2.727 101.988 2.44966 101.988 2.119C101.988 1.78833 102.1 1.511 102.324 1.287C102.548 1.063 102.825 0.950995 103.156 0.950995C103.476 0.950995 103.748 1.063 103.972 1.287C104.196 1.511 104.308 1.78833 104.308 2.119C104.308 2.44966 104.196 2.727 103.972 2.951C103.748 3.175 103.476 3.287 103.156 3.287ZM104.052 4.455V13.271H102.228V4.455H104.052ZM110.895 4.311C111.588 4.311 112.207 4.455 112.751 4.743C113.305 5.031 113.737 5.45766 114.047 6.023C114.356 6.58833 114.511 7.271 114.511 8.071V13.271H112.703V8.343C112.703 7.55366 112.505 6.951 112.111 6.535C111.716 6.10833 111.177 5.895 110.495 5.895C109.812 5.895 109.268 6.10833 108.863 6.535C108.468 6.951 108.271 7.55366 108.271 8.343V13.271H106.447V4.455H108.271V5.463C108.569 5.10033 108.948 4.81766 109.407 4.615C109.876 4.41233 110.372 4.311 110.895 4.311ZM124.917 8.647C124.917 8.97766 124.896 9.27633 124.853 9.543H118.117C118.171 10.247 118.432 10.8123 118.901 11.239C119.371 11.6657 119.947 11.879 120.629 11.879C121.611 11.879 122.304 11.4683 122.709 10.647H124.677C124.411 11.4577 123.925 12.1243 123.221 12.647C122.528 13.159 121.664 13.415 120.629 13.415C119.787 13.415 119.029 13.2283 118.357 12.855C117.696 12.471 117.173 11.9377 116.789 11.255C116.416 10.5617 116.229 9.76166 116.229 8.855C116.229 7.94833 116.411 7.15366 116.773 6.471C117.147 5.77766 117.664 5.24433 118.325 4.871C118.997 4.49766 119.765 4.311 120.629 4.311C121.461 4.311 122.203 4.49233 122.853 4.855C123.504 5.21766 124.011 5.72966 124.373 6.391C124.736 7.04166 124.917 7.79366 124.917 8.647ZM123.013 8.071C123.003 7.399 122.763 6.86033 122.293 6.455C121.824 6.04966 121.243 5.847 120.549 5.847C119.92 5.847 119.381 6.04966 118.933 6.455C118.485 6.84966 118.219 7.38833 118.133 8.071H123.013Z" fill="#21252C"/>
</svg>
