<svg width="19" height="18" viewBox="0 0 19 18" fill="none" xmlns="http://www.w3.org/2000/svg">
<g id="Group">
<path id="7-Check" d="M2.50768 8.23977C2.15322 8.24077 1.80629 8.3421 1.50702 8.53204C1.20775 8.72198 0.968375 8.99276 0.816582 9.31307C0.66479 9.63338 0.606787 9.99013 0.649284 10.342C0.69178 10.6939 0.83304 11.0266 1.05672 11.3016L5.82505 17.1428C5.99507 17.3539 6.213 17.5214 6.46074 17.6313C6.70849 17.7413 6.9789 17.7906 7.24951 17.7751C7.82828 17.744 8.35081 17.4344 8.68396 16.9253L18.589 0.973252C18.5906 0.970586 18.5923 0.967953 18.5941 0.965353C18.687 0.822654 18.6569 0.539864 18.465 0.362212C18.4123 0.313426 18.3502 0.275945 18.2825 0.252078C18.2147 0.22821 18.1428 0.21846 18.0712 0.223429C17.9996 0.228398 17.9297 0.247981 17.8659 0.280971C17.8021 0.313962 17.7458 0.359661 17.7003 0.415255C17.6968 0.419626 17.6931 0.423931 17.6893 0.42817L7.69996 11.7147C7.66195 11.7576 7.61578 11.7926 7.56414 11.8175C7.5125 11.8425 7.45642 11.8569 7.39915 11.86C7.34188 11.8631 7.28457 11.8548 7.23054 11.8356C7.17651 11.8163 7.12684 11.7866 7.08442 11.748L3.76914 8.73102C3.42481 8.41539 2.97478 8.24013 2.50768 8.23977Z" fill="#0DB0B3"/>
</g>
</svg>
