<svg width="76" height="93" viewBox="0 0 76 93" fill="none" xmlns="http://www.w3.org/2000/svg">
<path d="M48.5843 34.4014L48.7555 35.3866L48.5843 34.4014ZM49.7091 29.7948L49.3459 30.7265L49.7091 29.7948ZM0.261113 85.2205C-0.111032 84.8125 -0.0819037 84.18 0.326173 83.8078L6.97617 77.7434C7.38425 77.3712 8.01674 77.4004 8.38889 77.8084C8.76103 78.2165 8.7319 78.849 8.32382 79.2212L2.41272 84.6118L7.80334 90.5229C8.17548 90.931 8.14636 91.5635 7.73828 91.9356C7.3302 92.3077 6.69771 92.2786 6.32556 91.8705L0.261113 85.2205ZM75.8234 0.441628C75.4194 5.36005 73.1466 13.2674 68.7754 20.3401C64.403 27.4145 57.8293 33.8103 48.7555 35.3866L48.4132 33.4161C56.7047 31.9757 62.8618 26.1041 67.0741 19.2886C71.2875 12.4713 73.4532 4.86619 73.8302 0.277882L75.8234 0.441628ZM48.7555 35.3866C47.0278 35.6867 45.6003 35.3305 44.6128 34.5128C43.637 33.705 43.1838 32.5153 43.3016 31.3748C43.4211 30.2174 44.1279 29.1393 45.3722 28.604C46.5933 28.0788 48.1925 28.1302 50.0724 28.8631L49.3459 30.7265C47.7642 30.1098 46.7406 30.1927 46.1625 30.4413C45.6076 30.6799 45.3387 31.118 45.291 31.5802C45.2416 32.0592 45.4296 32.5926 45.8882 32.9723C46.335 33.3422 47.1352 33.6381 48.4132 33.4161L48.7555 35.3866ZM50.0724 28.8631C54.5138 30.5947 68.4414 39.0578 66.8451 57.7388L64.8523 57.5686C66.3394 40.1653 53.4001 32.3072 49.3459 30.7265L50.0724 28.8631ZM66.8451 57.7388C66.0255 67.3304 58.0252 74.6761 46.2137 79.3932C34.3576 84.1282 18.3798 86.3482 0.953996 85.5457L1.04601 83.5478C18.2779 84.3414 33.9536 82.1359 45.472 77.5359C57.035 72.918 64.1302 66.0191 64.8523 57.5686L66.8451 57.7388Z" fill="#FFC107"/>
</svg>
