<svg width="1440" height="92" viewBox="0 0 1440 92" fill="none" xmlns="http://www.w3.org/2000/svg">
<g filter="url(#filter0_d_1_31)">
<path d="M1439.84 0H0V85.4454C0.0964269 85.4454 0.192854 85.4165 0.289281 85.4165C2.86388 85.4165 4.97563 87.5282 4.97563 90.1028H11.6387C11.6387 87.5282 13.7505 85.4165 16.3251 85.4165C18.8997 85.4165 21.0018 87.5282 21.0018 90.1028H27.5974C27.5974 87.5282 29.7091 85.4165 32.2837 85.4165C34.8583 85.4165 36.9701 87.5282 36.9701 90.1028H43.6331C43.6331 87.5282 45.7449 85.4165 48.3195 85.4165C50.8941 85.4165 52.9383 87.5282 52.9383 90.1028H59.6014C59.6014 87.5282 61.7132 85.4165 64.2878 85.4165C66.8624 85.4165 68.9741 87.5282 68.9741 90.1028H75.6372C75.6372 87.5282 77.6815 85.4165 80.3236 85.4165C82.9657 85.4165 84.9424 87.5282 84.9424 90.1028H91.6055C91.6055 87.5282 93.7173 85.4165 96.2822 85.4165C98.8472 85.4165 100.969 87.5282 100.969 90.1028H107.622C107.622 87.5282 109.666 85.4165 112.241 85.4165C114.815 85.4165 116.927 87.5282 116.927 90.1028H123.59C123.59 87.5282 125.702 85.4165 128.277 85.4165C130.851 85.4165 132.963 87.5282 132.963 90.1028H139.559C139.559 87.5282 141.67 85.4165 144.245 85.4165C146.82 85.4165 148.931 87.5282 148.931 90.1028H155.594C155.594 87.5282 157.706 85.4165 160.281 85.4165C162.855 85.4165 164.9 87.5282 164.9 90.1028H171.563C171.563 87.5282 173.674 85.4165 176.249 85.4165C178.824 85.4165 180.935 87.5282 180.935 90.1028H187.598C187.598 87.5282 189.643 85.4165 192.285 85.4165C194.927 85.4165 196.904 87.5282 196.904 90.1028H203.567C203.567 87.5282 205.678 85.4165 208.253 85.4165C210.828 85.4165 212.939 87.5282 212.939 90.1028H219.603C219.603 87.5282 221.647 85.4165 224.221 85.4165C226.796 85.4165 228.898 87.5282 228.898 90.1028H235.561C235.561 87.5282 237.673 85.4165 240.247 85.4165C242.822 85.4165 244.934 87.5282 244.934 90.1028H251.529C251.529 87.5282 253.641 85.4165 256.216 85.4165C258.79 85.4165 260.902 87.5282 260.902 90.1028H267.565C267.565 87.5282 269.677 85.4165 272.242 85.4165C274.807 85.4165 276.861 87.5282 276.861 90.1028H283.524C283.524 87.5282 285.636 85.4165 288.21 85.4165C290.785 85.4165 292.897 87.5282 292.897 90.1028H299.56C299.56 87.5282 301.604 85.4165 304.236 85.4165C306.869 85.4165 308.855 87.5282 308.855 90.1028H315.518C315.518 87.5282 317.63 85.4165 320.205 85.4165H320.34C322.721 85.484 324.631 87.3257 324.823 89.64C324.891 89.7749 324.891 89.9003 324.958 90.1028H331.487C331.487 87.5282 333.598 85.4165 336.173 85.4165C338.748 85.4165 340.859 87.5282 340.859 90.1028H347.522C347.522 87.5282 349.634 85.4165 352.209 85.4165C354.783 85.4165 356.828 87.5282 356.828 90.1028H363.491C363.491 87.5282 365.602 85.4165 368.177 85.4165C370.752 85.4165 372.863 87.5282 372.863 90.1028H379.526C379.526 87.5282 381.571 85.4165 384.203 85.4165C386.836 85.4165 388.822 87.5282 388.822 90.1028H395.485C395.485 87.5282 397.597 85.4165 400.171 85.4165C402.746 85.4165 404.858 87.5282 404.858 90.1028H411.521C411.521 87.5282 413.565 85.4165 416.14 85.4165C418.714 85.4165 420.816 87.5282 420.816 90.1028H427.48C427.48 87.5282 429.591 85.4165 432.166 85.4165C434.74 85.4165 436.852 87.5282 436.852 90.1028H443.448C443.448 87.5282 445.56 85.4165 448.134 85.4165C450.709 85.4165 452.82 87.5282 452.82 90.1028H459.484C459.484 87.5282 461.595 85.4165 464.17 85.4165C466.745 85.4165 468.789 87.5282 468.789 90.1028H475.452C475.452 87.5282 477.564 85.4165 480.138 85.4165C482.713 85.4165 484.815 87.5282 484.815 90.1028H491.478C491.478 87.5282 493.522 85.4165 496.164 85.4165C498.806 85.4165 500.783 87.5282 500.783 90.1028H507.446C507.446 87.5282 509.558 85.4165 512.133 85.4165C514.707 85.4165 516.819 87.5282 516.819 90.1028H523.482C523.482 87.5282 525.526 85.4165 528.101 85.4165C530.675 85.4165 532.787 87.5282 532.787 90.1028H539.45C539.45 87.5282 541.562 85.4165 544.137 85.4165C546.711 85.4165 548.813 87.5282 548.813 90.1028H555.409C555.409 87.5282 557.521 85.4165 560.095 85.4165C562.67 85.4165 564.782 87.5282 564.782 90.1028H571.445C571.445 87.5282 573.557 85.4165 576.131 85.4165C578.706 85.4165 580.75 87.5282 580.75 90.1028H587.413C587.413 87.5282 589.525 85.4165 592.099 85.4165C594.674 85.4165 596.786 87.5282 596.786 90.1028H603.449C603.449 87.5282 605.493 85.4165 608.135 85.4165C610.777 85.4165 612.754 87.5282 612.754 90.1028H619.417C619.417 87.5282 621.529 85.4165 624.094 85.4165C626.659 85.4165 628.78 87.5282 628.78 90.1028H635.434C635.434 87.5282 637.478 85.4165 640.053 85.4165C642.627 85.4165 644.739 87.5282 644.739 90.1028H651.402C651.402 87.5282 653.514 85.4165 656.088 85.4165C658.663 85.4165 660.775 87.5282 660.775 90.1028H667.37C667.37 87.5282 669.482 85.4165 672.057 85.4165C674.631 85.4165 676.743 87.5282 676.743 90.1028H683.406C683.406 87.5282 685.518 85.4165 688.092 85.4165C690.667 85.4165 692.711 87.5282 692.711 90.1028H699.374C699.374 87.5282 701.486 85.4165 704.061 85.4165C706.635 85.4165 708.747 87.5282 708.747 90.1028H715.41C715.41 87.5282 717.454 85.4165 720.096 85.4165C722.739 85.4165 724.715 87.5282 724.715 90.1028H731.378C731.378 87.5282 733.49 85.4165 736.065 85.4165C738.639 85.4165 740.751 87.5282 740.751 90.1028H747.414C747.414 87.5282 749.458 85.4165 752.033 85.4165C754.608 85.4165 756.71 87.5282 756.71 90.1028H763.373C763.373 87.5282 765.485 85.4165 768.059 85.4165C770.634 85.4165 772.745 87.5282 772.745 90.1028H779.341C779.341 87.5282 781.453 85.4165 784.027 85.4165C786.602 85.4165 788.714 87.5282 788.714 90.1028H795.377C795.377 87.5282 797.489 85.4165 800.054 85.4165C802.619 85.4165 804.672 87.5282 804.672 90.1028H811.336C811.336 87.5282 813.447 85.4165 816.022 85.4165C818.596 85.4165 820.708 87.5282 820.708 90.1028H827.371C827.371 87.5282 829.416 85.4165 832.048 85.4165C834.68 85.4165 836.667 87.5282 836.667 90.1028H843.33C843.33 87.5282 845.442 85.4165 848.016 85.4165H848.151C850.533 85.484 852.442 87.3257 852.635 89.64C852.703 89.7749 852.703 89.9003 852.77 90.1028H859.298C859.298 87.5282 861.41 85.4165 863.985 85.4165C866.559 85.4165 868.671 87.5282 868.671 90.1028H875.334C875.334 87.5282 877.446 85.4165 880.02 85.4165C882.595 85.4165 884.639 87.5282 884.639 90.1028H891.302C891.302 87.5282 893.414 85.4165 895.989 85.4165C898.563 85.4165 900.675 87.5282 900.675 90.1028H907.338C907.338 87.5282 909.382 85.4165 912.015 85.4165C914.647 85.4165 916.634 87.5282 916.634 90.1028H923.297C923.297 87.5282 925.409 85.4165 927.983 85.4165C930.558 85.4165 932.669 87.5282 932.669 90.1028H939.333C939.333 87.5282 941.377 85.4165 943.951 85.4165C946.526 85.4165 948.628 87.5282 948.628 90.1028H955.291C955.291 87.5282 957.403 85.4165 959.977 85.4165C962.552 85.4165 964.664 87.5282 964.664 90.1028H971.259C971.259 87.5282 973.371 85.4165 975.946 85.4165C978.52 85.4165 980.632 87.5282 980.632 90.1028H987.295C987.295 87.5282 989.407 85.4165 991.982 85.4165C994.556 85.4165 996.6 87.5282 996.6 90.1028H1003.26C1003.26 87.5282 1005.38 85.4165 1007.95 85.4165C1010.52 85.4165 1012.63 87.5282 1012.63 90.1028H1019.29C1019.29 87.5282 1021.33 85.4165 1023.98 85.4165C1026.62 85.4165 1028.59 87.5282 1028.59 90.1028H1035.26C1035.26 87.5282 1037.37 85.4165 1039.94 85.4165C1042.52 85.4165 1044.63 87.5282 1044.63 90.1028H1051.29C1051.29 87.5282 1053.34 85.4165 1055.91 85.4165C1058.49 85.4165 1060.6 87.5282 1060.6 90.1028H1067.26C1067.26 87.5282 1069.37 85.4165 1071.95 85.4165C1074.52 85.4165 1076.63 87.5282 1076.63 90.1028H1083.22C1083.22 87.5282 1085.33 85.4165 1087.91 85.4165C1090.48 85.4165 1092.59 87.5282 1092.59 90.1028H1099.26C1099.26 87.5282 1101.37 85.4165 1103.94 85.4165C1106.52 85.4165 1108.56 87.5282 1108.56 90.1028H1115.22C1115.22 87.5282 1117.34 85.4165 1119.91 85.4165C1122.49 85.4165 1124.6 87.5282 1124.6 90.1028H1131.26C1131.26 87.5282 1133.3 85.4165 1135.95 85.4165C1138.59 85.4165 1140.57 87.5282 1140.57 90.1028H1147.23C1147.23 87.5282 1149.34 85.4165 1151.91 85.4165C1154.47 85.4165 1156.59 87.5282 1156.59 90.1028H1163.25C1163.25 87.5282 1165.29 85.4165 1167.86 85.4165C1170.44 85.4165 1172.55 87.5282 1172.55 90.1028H1179.21C1179.21 87.5282 1181.33 85.4165 1183.9 85.4165C1186.47 85.4165 1188.59 87.5282 1188.59 90.1028H1195.18C1195.18 87.5282 1197.29 85.4165 1199.87 85.4165C1202.44 85.4165 1204.55 87.5282 1204.55 90.1028H1211.22C1211.22 87.5282 1213.33 85.4165 1215.9 85.4165C1218.48 85.4165 1220.52 87.5282 1220.52 90.1028H1227.19C1227.19 87.5282 1229.3 85.4165 1231.87 85.4165C1234.45 85.4165 1236.56 87.5282 1236.56 90.1028H1243.22C1243.22 87.5282 1245.27 85.4165 1247.91 85.4165C1250.55 85.4165 1252.53 87.5282 1252.53 90.1028H1259.19C1259.19 87.5282 1261.3 85.4165 1263.88 85.4165C1266.45 85.4165 1268.56 87.5282 1268.56 90.1028H1275.23C1275.23 87.5282 1277.27 85.4165 1279.84 85.4165C1282.42 85.4165 1284.52 87.5282 1284.52 90.1028H1291.18C1291.18 87.5282 1293.3 85.4165 1295.87 85.4165C1298.45 85.4165 1300.56 87.5282 1300.56 90.1028H1307.15C1307.15 87.5282 1309.26 85.4165 1311.84 85.4165C1314.41 85.4165 1316.53 87.5282 1316.53 90.1028H1323.19C1323.19 87.5282 1325.3 85.4165 1327.87 85.4165C1330.43 85.4165 1332.48 87.5282 1332.48 90.1028H1339.15C1339.15 87.5282 1341.26 85.4165 1343.83 85.4165C1346.41 85.4165 1348.52 87.5282 1348.52 90.1028H1355.18C1355.18 87.5282 1357.23 85.4165 1359.86 85.4165C1362.49 85.4165 1364.48 87.5282 1364.48 90.1028H1371.14C1371.14 87.5282 1373.25 85.4165 1375.83 85.4165H1375.96C1378.34 85.484 1380.25 87.3257 1380.45 89.64C1380.51 89.7749 1380.51 89.9003 1380.58 90.1028H1387.11C1387.11 87.5282 1389.22 85.4165 1391.8 85.4165C1394.37 85.4165 1396.48 87.5282 1396.48 90.1028H1403.15C1403.15 87.5282 1405.26 85.4165 1407.83 85.4165C1410.41 85.4165 1412.45 87.5282 1412.45 90.1028H1419.11C1419.11 87.5282 1421.23 85.4165 1423.8 85.4165C1426.38 85.4165 1428.49 87.5282 1428.49 90.1028H1435.15C1435.15 87.5282 1437.19 85.4165 1439.83 85.4165C1439.88 85.4165 1439.94 85.4357 1440 85.4357V0H1439.84Z" fill="#1F1F1F"/>
</g>
<defs>
<filter id="filter0_d_1_31" x="0" y="0" width="1441" height="91.1028" filterUnits="userSpaceOnUse" color-interpolation-filters="sRGB">
<feFlood flood-opacity="0" result="BackgroundImageFix"/>
<feColorMatrix in="SourceAlpha" type="matrix" values="0 0 0 0 0 0 0 0 0 0 0 0 0 0 0 0 0 0 127 0" result="hardAlpha"/>
<feOffset dx="1" dy="1"/>
<feComposite in2="hardAlpha" operator="out"/>
<feColorMatrix type="matrix" values="0 0 0 0 0.325 0 0 0 0 0.325 0 0 0 0 0.325 0 0 0 1 0"/>
<feBlend mode="normal" in2="BackgroundImageFix" result="effect1_dropShadow_1_31"/>
<feBlend mode="normal" in="SourceGraphic" in2="effect1_dropShadow_1_31" result="shape"/>
</filter>
</defs>
</svg>
