<svg width="52" height="69" viewBox="0 0 52 69" fill="none" xmlns="http://www.w3.org/2000/svg">
<path d="M46.3377 27.5387V30.9522C46.34 30.9926 46.334 31.033 46.32 31.0709C46.3061 31.1088 46.2846 31.1435 46.2568 31.1729C46.229 31.2022 46.1956 31.2255 46.1584 31.2415C46.1213 31.2574 46.0813 31.2656 46.0409 31.2655H45.002V29.2867C44.9977 29.0972 44.9194 28.9168 44.7838 28.7843C44.6481 28.6518 44.466 28.5776 44.2764 28.5776C44.0868 28.5776 43.9047 28.6518 43.7691 28.7843C43.6335 28.9168 43.5552 29.0972 43.5509 29.2867V31.3315H42.2646V29.3527C42.2603 29.1631 42.182 28.9828 42.0464 28.8502C41.9108 28.7177 41.7287 28.6435 41.5391 28.6436C41.351 28.6436 41.1706 28.7183 41.0377 28.8513C40.9047 28.9843 40.83 29.1646 40.83 29.3527V31.3315H39.5767V29.3527C39.5724 29.1631 39.4941 28.9828 39.3585 28.8502C39.2228 28.7177 39.0407 28.6435 38.8511 28.6436C38.6631 28.6436 38.4827 28.7183 38.3497 28.8513C38.2168 28.9843 38.1421 29.1646 38.1421 29.3527V31.3315H36.8393V29.3527C36.8393 29.1646 36.7646 28.9843 36.6316 28.8513C36.4987 28.7183 36.3183 28.6436 36.1302 28.6436C35.9406 28.6435 35.7585 28.7177 35.6229 28.8502C35.4873 28.9828 35.409 29.1631 35.4047 29.3527V31.3315H34.4812C34.401 31.3273 34.3255 31.2924 34.2703 31.2341C34.215 31.1758 34.1843 31.0985 34.1844 31.0182V27.5387C34.1844 27.46 34.2157 27.3845 34.2713 27.3289C34.327 27.2732 34.4025 27.2419 34.4812 27.2419H46.0244C46.1031 27.2419 46.1786 27.2732 46.2343 27.3289C46.29 27.3845 46.3212 27.46 46.3212 27.5387H46.3377ZM11.7082 37.2185C11.6501 37.164 11.5734 37.1337 11.4938 37.1337C11.4141 37.1337 11.3375 37.164 11.2794 37.2185L7.9154 40.0713C7.89568 40.1414 7.89568 40.2156 7.9154 40.2857V42.0997C7.9154 42.1784 7.94667 42.2539 8.00234 42.3095C8.058 42.3652 8.1335 42.3965 8.21222 42.3965H10.356C10.4347 42.3965 10.5102 42.3652 10.5658 42.3095C10.6215 42.2539 10.6528 42.1784 10.6528 42.0997V39.5766C10.6528 39.4979 10.6841 39.4224 10.7397 39.3668C10.7954 39.3111 10.8709 39.2798 10.9496 39.2798H12.4008C12.4811 39.2797 12.5584 39.3104 12.6167 39.3657C12.675 39.4209 12.7098 39.4964 12.7141 39.5766V42.1161C12.7141 42.1949 12.7453 42.2704 12.801 42.326C12.8567 42.3817 12.9322 42.413 13.0109 42.413H15.0227C15.063 42.4152 15.1034 42.4092 15.1414 42.3953C15.1793 42.3814 15.214 42.3599 15.2433 42.3321C15.2727 42.3043 15.296 42.2708 15.312 42.2337C15.3279 42.1965 15.3361 42.1565 15.336 42.1161V40.3022C15.3323 40.2206 15.2967 40.1437 15.2371 40.0878L11.7082 37.2185ZM51.1199 32.4528C51.1199 48.6133 34.811 53.1976 25.9722 68.3851C25.8973 68.5268 25.7937 68.6514 25.668 68.7509C25.5424 68.8503 25.3973 68.9225 25.2422 68.9629C25.0871 69.0032 24.9252 69.0108 24.767 68.9851C24.6088 68.9595 24.4577 68.9012 24.3232 68.8139C21.5271 66.6199 18.9532 64.1565 16.6388 61.4592C18.0734 58.7548 21.3715 54.8631 28.8086 50.1799C43.7982 40.9453 39.6262 36.5094 28.4458 32.5518C17.5787 28.6766 11.5433 25.2466 19.7884 20.1511C21.4636 19.2025 23.2778 18.5235 25.1642 18.1393H34.8605C34.903 18.1356 34.9428 18.117 34.973 18.0869C35.0031 18.0567 35.0217 18.0169 35.0254 17.9744V16.7871C35.0254 16.7654 35.0211 16.744 35.0128 16.724C35.0046 16.704 34.9924 16.6858 34.9771 16.6705C34.9618 16.6552 34.9436 16.643 34.9236 16.6347C34.9036 16.6265 34.8821 16.6222 34.8605 16.6222H34.6296C34.5859 16.6222 34.544 16.6048 34.513 16.5739C34.4821 16.543 34.4647 16.501 34.4647 16.4573V10.999C34.4647 10.9553 34.4821 10.9133 34.513 10.8824C34.544 10.8515 34.5859 10.8341 34.6296 10.8341H35.2398C35.2823 10.8304 35.3221 10.8118 35.3522 10.7817C35.3824 10.7515 35.401 10.7117 35.4047 10.6692V9.317V6.69505C35.4047 6.65131 35.3873 6.60937 35.3564 6.57844C35.3255 6.54752 35.2835 6.53015 35.2398 6.53015H34.069C34.0252 6.53015 33.9833 6.54752 33.9524 6.57844C33.9214 6.60937 33.9041 6.65131 33.9041 6.69505V8.34407C33.9003 8.38656 33.8818 8.42638 33.8516 8.45654C33.8215 8.4867 33.7816 8.50526 33.7392 8.50898H33.3104V7.68446C33.3104 7.66281 33.3061 7.64137 33.2979 7.62136C33.2896 7.60135 33.2774 7.58317 33.2621 7.56786C33.2468 7.55255 33.2286 7.5404 33.2086 7.53211C33.1886 7.52383 33.1672 7.51956 33.1455 7.51956H31.9582C31.9057 7.51956 31.8554 7.54041 31.8183 7.57752C31.7812 7.61463 31.7603 7.66496 31.7603 7.71744V8.49249H31.2326C31.1902 8.48877 31.1503 8.47021 31.1202 8.44005C31.09 8.40989 31.0714 8.37007 31.0677 8.32759V7.2887C31.0679 7.24768 31.0528 7.20805 31.0254 7.17756C30.998 7.14707 30.9601 7.1279 30.9193 7.1238H29.6826C29.6388 7.1238 29.5969 7.14117 29.5659 7.17209C29.535 7.20302 29.5176 7.24496 29.5176 7.2887V8.93772C29.5203 8.96002 29.5179 8.98262 29.5105 9.00384C29.5032 9.02505 29.4911 9.04432 29.4752 9.0602C29.4593 9.07607 29.4401 9.08814 29.4189 9.09549C29.3976 9.10284 29.375 9.10528 29.3527 9.10263C29.3311 9.10263 29.3096 9.09836 29.2896 9.09007C29.2696 9.08179 29.2515 9.06964 29.2361 9.05433C29.2208 9.03902 29.2087 9.02084 29.2004 9.00083C29.1921 8.98082 29.1878 8.95938 29.1878 8.93772V4.38641C29.1878 4.34268 29.1705 4.30073 29.1395 4.26981C29.1086 4.23888 29.0667 4.22151 29.0229 4.22151H27.8521C27.8084 4.22151 27.7665 4.23888 27.7355 4.26981C27.7046 4.30073 27.6872 4.34268 27.6872 4.38641V5.30987C27.6835 5.35235 27.6649 5.39217 27.6348 5.42233C27.6046 5.45249 27.5648 5.47105 27.5223 5.47477H25.8733V2.80335L28.1325 2.2097C28.1725 2.20669 28.2104 2.1905 28.2403 2.16364C28.2701 2.13678 28.2902 2.10078 28.2974 2.06128C28.2933 2.02047 28.2741 1.98264 28.2436 1.9552C28.2131 1.92776 28.1735 1.91267 28.1325 1.91287L25.9887 1.31922V1.20379C25.9887 1.16005 25.9714 1.11811 25.9404 1.08719C25.9095 1.05626 25.8676 1.03889 25.8238 1.03889H25.2467C25.2042 1.0426 25.1644 1.06117 25.1342 1.09133C25.104 1.12148 25.0855 1.1613 25.0818 1.20379V5.49126H23.5647C23.5222 5.48754 23.4824 5.46898 23.4522 5.43882C23.422 5.40866 23.4035 5.36884 23.3998 5.32636V4.4029C23.3998 4.35917 23.3824 4.31722 23.3515 4.2863C23.3205 4.25537 23.2786 4.238 23.2349 4.238H22.0476C22.0067 4.2421 21.9689 4.26127 21.9415 4.29176C21.914 4.32225 21.8989 4.36188 21.8991 4.4029V8.9872C21.8954 9.02968 21.8769 9.0695 21.8467 9.09966C21.8165 9.12982 21.7767 9.14838 21.7342 9.1521C21.6905 9.1521 21.6486 9.13472 21.6176 9.1038C21.5867 9.07287 21.5693 9.03093 21.5693 8.9872V7.33817C21.5693 7.29443 21.552 7.25249 21.521 7.22156C21.4901 7.19064 21.4482 7.17327 21.4044 7.17327H20.2171C20.1734 7.17327 20.1315 7.19064 20.1005 7.22156C20.0696 7.25249 20.0522 7.29443 20.0522 7.33817V8.34407C20.0549 8.36637 20.0524 8.38897 20.0451 8.41019C20.0377 8.4314 20.0257 8.45067 20.0098 8.46655C19.9939 8.48242 19.9747 8.49449 19.9534 8.50184C19.9322 8.50919 19.9096 8.51163 19.8873 8.50898H19.3761V7.68446C19.3761 7.64073 19.3588 7.59879 19.3278 7.56786C19.2969 7.53693 19.255 7.51956 19.2112 7.51956H18.0239C17.9715 7.51956 17.9211 7.54041 17.884 7.57752C17.8469 7.61463 17.826 7.66496 17.826 7.71744V8.49249H17.4468C17.4043 8.48877 17.3645 8.47021 17.3343 8.44005C17.3042 8.40989 17.2856 8.37007 17.2819 8.32759V6.67856C17.2819 6.63482 17.2645 6.59288 17.2336 6.56195C17.2026 6.53103 17.1607 6.51366 17.117 6.51366H15.9462C15.8937 6.51366 15.8433 6.5345 15.8062 6.57161C15.7691 6.60872 15.7483 6.65906 15.7483 6.71154V9.317V10.6692C15.7481 10.6902 15.7525 10.7109 15.7609 10.7301C15.7694 10.7493 15.7818 10.7664 15.7974 10.7804C15.813 10.7945 15.8314 10.805 15.8513 10.8114C15.8713 10.8178 15.8923 10.8199 15.9132 10.8176H16.4903C16.5312 10.8217 16.569 10.8409 16.5964 10.8714C16.6239 10.9019 16.639 10.9415 16.6388 10.9825V16.4903C16.6411 16.5111 16.639 16.5322 16.6326 16.5521C16.6262 16.5721 16.6156 16.5905 16.6016 16.606C16.5876 16.6216 16.5704 16.6341 16.5512 16.6425C16.532 16.651 16.5113 16.6553 16.4903 16.6552H16.2265C16.1828 16.6552 16.1408 16.6725 16.1099 16.7035C16.079 16.7344 16.0616 16.7763 16.0616 16.8201V17.9909C16.0589 18.0132 16.0614 18.0358 16.0687 18.057C16.0761 18.0782 16.0881 18.0975 16.104 18.1134C16.1199 18.1292 16.1392 18.1413 16.1604 18.1486C16.1816 18.156 16.2042 18.1584 16.2265 18.1558H20.7283C19.7659 18.502 18.8243 18.904 17.9085 19.3596C16.7542 19.7883 4.94715 25.1806 14.8413 30.2267C26.4834 36.1632 33.6897 38.3069 28.0335 41.4565C23.0864 44.2104 12.6976 46.9973 6.99194 49.8336C3.03428 44.2434 7.1241e-05 38.109 7.1241e-05 32.4528C-0.0114005 27.565 1.36278 22.7741 3.96329 18.6354C6.5638 14.4968 10.2841 11.18 14.6929 9.06965V6.69505C14.7096 6.37706 14.8468 6.07736 15.0765 5.85684C15.3062 5.63631 15.6113 5.5115 15.9297 5.50775H17.117C17.3972 5.50639 17.6691 5.60282 17.8858 5.78042C18.1025 5.95802 18.2505 6.20567 18.3043 6.48067H19.2112C19.2536 6.46412 19.3007 6.46412 19.3432 6.48067C19.4516 6.36098 19.5839 6.26538 19.7317 6.20005C19.8794 6.13472 20.0391 6.10111 20.2006 6.1014H20.8603V4.45237C20.8602 4.13594 20.9848 3.83223 21.207 3.60694C21.4292 3.38166 21.7312 3.25292 22.0476 3.24858H23.2349C23.537 3.24854 23.8271 3.36695 24.0429 3.57839V1.1873C24.0472 0.870901 24.176 0.568932 24.4012 0.346732C24.6265 0.124532 24.9302 -2.96853e-05 25.2467 5.30661e-09H25.8238C25.9971 0.000939746 26.1681 0.0398088 26.3248 0.113877C26.4815 0.187946 26.6201 0.295418 26.7308 0.428747L28.3798 0.890474C28.6429 0.927937 28.885 1.05504 29.0653 1.25031C29.2456 1.44559 29.3529 1.69709 29.3692 1.96234V2.14373C29.3544 2.39213 29.2597 2.62907 29.0992 2.81926C28.9387 3.00944 28.7211 3.14268 28.4788 3.19911H29.0229C29.3393 3.20345 29.6413 3.33218 29.8635 3.55747C30.0857 3.78276 30.2103 4.08647 30.2102 4.4029V6.05193H30.8699C31.031 6.05362 31.1902 6.08813 31.3376 6.15333C31.485 6.21854 31.6176 6.31308 31.7273 6.4312H32.8157C32.8663 6.15912 33.0117 5.91377 33.226 5.73869C33.4404 5.5636 33.7098 5.4701 33.9865 5.47477H35.1738C35.329 5.47475 35.4826 5.50557 35.6257 5.56544C35.7688 5.62531 35.8986 5.71303 36.0076 5.8235C36.1165 5.93397 36.2024 6.06499 36.2603 6.20895C36.3181 6.35291 36.3468 6.50693 36.3446 6.66207V9.05316C40.7726 11.1513 44.5127 14.4652 47.1288 18.6083C49.7449 22.7514 51.1291 27.5529 51.1199 32.4528ZM16.8531 39.6591C16.8508 39.5803 16.8217 39.5047 16.7707 39.4447L11.8236 35.0748C11.7655 35.0203 11.6889 34.99 11.6092 34.99C11.5296 34.99 11.4529 35.0203 11.3948 35.0748L6.44777 39.4447C6.41749 39.4718 6.39308 39.5048 6.37606 39.5416C6.35904 39.5785 6.34977 39.6185 6.34882 39.6591V43.9136H16.9026V39.6591H16.8531ZM4.22158 38.4553C4.16709 38.5134 4.13676 38.59 4.13676 38.6697C4.13676 38.7493 4.16709 38.826 4.22158 38.884L4.84821 39.5272C4.90629 39.5817 4.98294 39.612 5.06258 39.612C5.14222 39.612 5.21888 39.5817 5.27696 39.5272L11.3619 34.0524C11.4199 33.9979 11.4966 33.9676 11.5762 33.9676C11.6559 33.9676 11.7325 33.9979 11.7906 34.0524L17.859 39.5766C17.9171 39.6311 17.9938 39.6615 18.0734 39.6615C18.153 39.6615 18.2297 39.6311 18.2878 39.5766L18.9309 38.9335C18.9854 38.8754 19.0157 38.7988 19.0157 38.7191C19.0157 38.6395 18.9854 38.5629 18.9309 38.5048L11.8071 31.9087C11.749 31.8542 11.6724 31.8238 11.5927 31.8238C11.5131 31.8238 11.4364 31.8542 11.3784 31.9087L4.22158 38.4553ZM35.5531 23.1688H45.1174C45.1495 23.1648 45.179 23.1491 45.2002 23.1248C45.2215 23.1005 45.2331 23.0692 45.2329 23.0369C45.0648 21.8577 44.477 20.7787 43.5773 19.9981C42.6776 19.2175 41.5264 18.7877 40.3353 18.7877C39.1441 18.7877 37.993 19.2175 37.0933 19.9981C36.1935 20.7787 35.6057 21.8577 35.4377 23.0369C35.4326 23.052 35.4308 23.0681 35.4323 23.084C35.4338 23.0998 35.4386 23.1152 35.4464 23.1292C35.4541 23.1431 35.4647 23.1553 35.4773 23.165C35.49 23.1746 35.5046 23.1816 35.5201 23.1853L35.5531 23.1688ZM48.7453 32.4693V31.5624C48.7453 31.4836 48.714 31.4081 48.6584 31.3525C48.6027 31.2968 48.5272 31.2655 48.4485 31.2655H48.1516C48.1112 31.2656 48.0713 31.2574 48.0341 31.2415C47.997 31.2255 47.9635 31.2022 47.9357 31.1729C47.9079 31.1435 47.8864 31.1088 47.8725 31.0709C47.8586 31.033 47.8526 30.9926 47.8548 30.9522V26.0051C47.8571 25.9648 47.8511 25.9244 47.8371 25.8865C47.8232 25.8486 47.8017 25.8139 47.7739 25.7845C47.7462 25.7552 47.7127 25.7318 47.6755 25.7159C47.6384 25.7 47.5984 25.6918 47.558 25.6918H45.4143C45.3355 25.6918 45.26 25.6606 45.2044 25.6049C45.1487 25.5492 45.1174 25.4737 45.1174 25.395V23.9604C45.1197 23.92 45.1137 23.8796 45.0998 23.8417C45.0859 23.8038 45.0643 23.7691 45.0366 23.7397C45.0088 23.7104 44.9753 23.687 44.9381 23.6711C44.901 23.6552 44.861 23.647 44.8206 23.647H43.9137C43.8306 23.647 43.7509 23.6801 43.6921 23.7388C43.6333 23.7976 43.6003 23.8773 43.6003 23.9604V25.395C43.6003 25.4737 43.5691 25.5492 43.5134 25.6049C43.4577 25.6606 43.3822 25.6918 43.3035 25.6918H42.6439C42.5636 25.6919 42.4863 25.6612 42.428 25.606C42.3697 25.5507 42.3348 25.4752 42.3306 25.395V23.9439C42.3306 23.8651 42.2993 23.7896 42.2436 23.734C42.188 23.6783 42.1125 23.647 42.0338 23.647H41.1268C41.0481 23.647 40.9726 23.6783 40.9169 23.734C40.8612 23.7896 40.83 23.8651 40.83 23.9439V25.395C40.8257 25.4752 40.7909 25.5507 40.7326 25.606C40.6743 25.6612 40.597 25.6919 40.5167 25.6918H39.8735C39.7948 25.6918 39.7193 25.6606 39.6637 25.6049C39.608 25.5492 39.5767 25.4737 39.5767 25.395V23.9439C39.5767 23.8651 39.5454 23.7896 39.4898 23.734C39.4341 23.6783 39.3586 23.647 39.2799 23.647H38.3564C38.2777 23.647 38.2022 23.6783 38.1465 23.734C38.0909 23.7896 38.0596 23.8651 38.0596 23.9439V25.395C38.0596 25.4737 38.0283 25.5492 37.9727 25.6049C37.917 25.6606 37.8415 25.6918 37.7628 25.6918H37.0867C37.008 25.6918 36.9325 25.6606 36.8768 25.6049C36.8211 25.5492 36.7899 25.4737 36.7899 25.395V23.9439C36.7899 23.8651 36.7586 23.7896 36.7029 23.734C36.6473 23.6783 36.5718 23.647 36.493 23.647H35.5861C35.5057 23.6469 35.4285 23.6777 35.3702 23.7329C35.3118 23.7881 35.277 23.8637 35.2728 23.9439V25.395C35.2728 25.4737 35.2415 25.5492 35.1858 25.6049C35.1301 25.6606 35.0546 25.6918 34.9759 25.6918H32.9806C32.9403 25.6896 32.8999 25.6956 32.8619 25.7095C32.824 25.7234 32.7893 25.7449 32.76 25.7727C32.7306 25.8005 32.7073 25.834 32.6914 25.8711C32.6754 25.9083 32.6672 25.9483 32.6673 25.9887V30.9357C32.6674 31.0161 32.6367 31.0933 32.5814 31.1517C32.5262 31.21 32.4507 31.2448 32.3705 31.2491H32.255C32.1747 31.2489 32.0974 31.2797 32.0391 31.3349C31.9808 31.3902 31.9459 31.4657 31.9417 31.5459V32.4528C31.9459 32.5331 31.9808 32.6086 32.0391 32.6638C32.0974 32.719 32.1747 32.7498 32.255 32.7497H48.399C48.4777 32.7497 48.5532 32.7184 48.6089 32.6627C48.6646 32.6071 48.6958 32.5316 48.6958 32.4528L48.7453 32.4693ZM20.0357 9.89416V10.1745C20.0331 10.1968 20.0355 10.2194 20.0429 10.2406C20.0502 10.2618 20.0623 10.2811 20.0782 10.297C20.094 10.3128 20.1133 10.3249 20.1345 10.3323C20.1557 10.3396 20.1784 10.342 20.2006 10.3394H23.2184C23.2407 10.342 23.2633 10.3396 23.2845 10.3323C23.3057 10.3249 23.325 10.3128 23.3408 10.297C23.3567 10.2811 23.3688 10.2618 23.3761 10.2406C23.3835 10.2194 23.3859 10.1968 23.3833 10.1745V7.14029C23.387 7.0978 23.4056 7.05798 23.4357 7.02782C23.4659 6.99766 23.5057 6.9791 23.5482 6.97538H27.5553C27.5978 6.9791 27.6376 6.99766 27.6678 7.02782C27.6979 7.05798 27.7165 7.0978 27.7202 7.14029V10.158C27.7176 10.1803 27.72 10.2029 27.7273 10.2241C27.7347 10.2453 27.7468 10.2646 27.7626 10.2805C27.7785 10.2964 27.7978 10.3084 27.819 10.3158C27.8402 10.3231 27.8628 10.3256 27.8851 10.3229H30.9193C30.9403 10.323 30.961 10.3187 30.9802 10.3103C30.9994 10.3018 31.0165 10.2894 31.0306 10.2738C31.0446 10.2582 31.0551 10.2398 31.0615 10.2199C31.068 10.1999 31.0701 10.1788 31.0677 10.158V9.89416C31.0677 9.85042 31.0851 9.80848 31.116 9.77756C31.147 9.74663 31.1889 9.72926 31.2326 9.72926H33.2444C33.2855 9.72905 33.3251 9.74414 33.3556 9.77159C33.3861 9.79903 33.4053 9.83685 33.4094 9.87767C33.4171 9.89593 33.421 9.91556 33.421 9.93539C33.421 9.95521 33.4171 9.97484 33.4094 9.9931C33.1434 10.3191 32.9978 10.7267 32.9971 11.1474V16.4903C32.9971 16.534 32.9797 16.5759 32.9488 16.6069C32.9179 16.6378 32.8759 16.6552 32.8322 16.6552H27.3904V14.6928C27.4214 14.436 27.3985 14.1756 27.3233 13.9282C27.2481 13.6807 27.1222 13.4516 26.9537 13.2554C26.7851 13.0593 26.5775 12.9003 26.3442 12.7888C26.1109 12.6772 25.8568 12.6154 25.5983 12.6074C25.3398 12.5993 25.0825 12.6452 24.8426 12.742C24.6028 12.8389 24.3858 12.9846 24.2053 13.1699C24.0249 13.3552 23.885 13.5761 23.7946 13.8184C23.7042 14.0607 23.6652 14.3192 23.6801 14.5774C23.6724 14.5957 23.6684 14.6153 23.6684 14.6351C23.6684 14.6549 23.6724 14.6746 23.6801 14.6928V16.5892H18.3372C18.2979 16.6002 18.2558 16.5961 18.2192 16.5778C18.1827 16.5596 18.1542 16.5284 18.1394 16.4903V11.1309C18.1387 10.7102 17.9931 10.3026 17.7271 9.97661C17.6969 9.94579 17.68 9.90434 17.68 9.86118C17.68 9.81802 17.6969 9.77657 17.7271 9.74575H17.826H19.8214C19.8437 9.7431 19.8663 9.74554 19.8875 9.75289C19.9087 9.76024 19.928 9.7723 19.9438 9.78818C19.9597 9.80405 19.9718 9.82332 19.9791 9.84454C19.9865 9.86575 19.9889 9.88836 19.9863 9.91065L20.0357 9.89416ZM29.1714 15.1381H30.8204V13.7859C30.8204 13.5672 30.7335 13.3575 30.5789 13.2028C30.4243 13.0482 30.2145 12.9613 29.9959 12.9613C29.7772 12.9613 29.5675 13.0482 29.4128 13.2028C29.2582 13.3575 29.1714 13.5672 29.1714 13.7859V15.1875V15.1381ZM24.719 10.191H26.368V8.87176C26.368 8.65309 26.2811 8.44337 26.1265 8.28874C25.9719 8.13412 25.7622 8.04725 25.5435 8.04725C25.3248 8.04725 25.1151 8.13412 24.9605 8.28874C24.8058 8.44337 24.719 8.65309 24.719 8.87176V10.191ZM19.7884 13.7859V15.1051H21.4374V13.7859C21.4374 13.5672 21.3505 13.3575 21.1959 13.2028C21.0413 13.0482 20.8316 12.9613 20.6129 12.9613C20.3942 12.9613 20.1845 13.0482 20.0299 13.2028C19.8753 13.3575 19.7884 13.5672 19.7884 13.7859Z" fill="#4500E4"/>
</svg>
