<svg width="50" height="50" viewBox="0 0 50 50" fill="none" xmlns="http://www.w3.org/2000/svg">
<rect width="50" height="50" rx="25" fill="#1A1A1A"/>
<path d="M33.7071 32.2929L30.3171 28.9029C31.3699 27.5487 31.9981 25.8476 32.0004 23.9997C31.9999 19.5817 28.4182 16 24.0002 16C19.5822 16 16 19.5817 16 24.0002C16 28.4187 19.5817 32.0004 24.0002 32.0004C25.848 31.9985 27.5491 31.3704 28.9034 30.3171L32.2934 33.7071C32.4809 33.8946 32.7354 34.0001 33.0003 34.0001C33.2656 34.0001 33.5196 33.8946 33.7071 33.7071C34.0976 33.3167 34.0976 32.6834 33.7071 32.2929ZM18.0002 24.0002C18.0002 20.6866 20.6866 18.0002 24.0002 18.0002C27.3124 18.0035 29.997 20.688 30.0002 24.0002C30.0002 27.3138 27.3138 30.0002 24.0002 30.0002C20.6866 30.0002 18.0002 27.3138 18.0002 24.0002Z" fill="white"/>
</svg>
