<svg width="1140" height="295" viewBox="0 0 1140 295" fill="none" xmlns="http://www.w3.org/2000/svg">
<path d="M569.986 344.901L569.977 344.895L569.986 344.889V344.898V344.901ZM508.686 344.601V345.191L509.198 344.895L508.686 344.598V344.601ZM478.515 344.398L477.648 344.898L478.515 345.398V344.398ZM416.619 343.918V345.878L418.314 344.898L416.619 343.918ZM387.169 343.651L385.009 344.898L387.169 346.145V343.651ZM324.544 343.221V346.575L327.451 344.898L324.544 343.221ZM295.742 343.069L292.576 344.898L295.742 346.726V343.069ZM232.669 342.915V346.88L236.102 344.898L232.669 342.915ZM204.178 342.758L200.471 344.898L204.178 347.037V342.758ZM140.788 342.598V347.197L144.771 344.898L140.788 342.598ZM1105.01 318.366V318.474L1105.1 318.418L1105.01 318.363V318.366ZM1074.83 317.692L1073.56 318.421L1074.83 319.151V317.692ZM1012.23 316.282V320.561L1015.94 318.421L1012.23 316.282ZM984.067 315.793L979.514 318.421L984.067 321.049V315.79V315.793ZM920.177 315.625V321.221L925.023 318.424L920.177 315.628V315.625ZM892.43 315.625L887.584 318.421L892.43 321.218V315.622V315.625ZM828.788 316.282V320.561L832.494 318.421L828.788 316.282ZM800.218 316.593L797.052 318.421L800.218 320.25V316.593ZM737.372 316.892V319.953L740.023 318.424L737.372 316.895V316.892ZM708.343 316.892L705.692 318.421L708.343 319.95V316.889V316.892ZM645.422 316.442V320.407L648.855 318.424L645.422 316.442ZM617.012 316.125L613.029 318.424L617.012 320.723V316.125ZM553.113 315.282V321.567L558.558 318.424L553.113 315.282ZM525.895 314.927L519.834 318.427L525.895 321.927V314.93V314.927ZM460.741 313.997V322.854L468.413 318.424L460.741 313.994V313.997ZM434.837 313.61L426.494 318.427L434.837 323.244V313.61ZM368.521 313.014V323.84L377.896 318.427L368.521 313.014ZM343.622 312.607L333.541 318.427L343.622 324.247V312.604V312.607ZM276.489 312.401V324.456L286.928 318.427L276.489 312.401ZM252.003 312.401L241.564 318.427L252.003 324.456V312.401ZM184.66 312.192V324.662L195.463 318.427L184.66 312.192ZM160.495 311.982L149.329 318.43L160.495 324.878V311.985V311.982ZM112.622 342.444L108.358 344.907L112.622 347.369V342.444ZM1150.53 291.224V292.683L1151.79 291.953L1150.53 291.224ZM1121.56 289.491L1117.3 291.953L1121.56 294.415V289.491ZM1056.64 286.942V296.968L1065.32 291.953L1056.64 286.939V286.942ZM1031.54 286.133L1021.46 291.953L1031.54 297.773V286.13V286.133ZM964.084 285.296V298.613L975.616 291.953L964.084 285.293V285.296ZM940.238 285.296L928.706 291.956L940.238 298.616V285.299V285.296ZM872.68 285.927V297.982L883.119 291.956L872.68 285.93V285.927ZM847.886 286.54L838.511 291.953L847.886 297.366V286.54ZM781.668 287.331V296.575L789.674 291.953L781.668 287.331ZM755.669 287.523L747.997 291.953L755.669 296.383V287.526V287.523ZM690.046 287.523V296.38L697.718 291.95L690.046 287.52V287.523ZM664.142 287.136L655.799 291.953L664.142 296.77V287.136ZM597.619 286.133V297.776L607.701 291.956L597.619 286.136V286.133ZM573.241 285.508L562.076 291.956L573.241 298.404V285.511V285.508ZM505.035 284.43V299.479L518.067 291.956L505.035 284.433V284.43ZM482.288 283.988L468.488 291.956L482.288 299.924V283.988ZM412.634 283.084V300.831L428.003 291.959L412.634 283.087V283.084ZM391.259 282.622L375.09 291.956L391.259 301.29V282.622ZM320.442 282.154V301.758L337.422 291.956L320.442 282.154ZM299.893 281.918L282.506 291.956L299.893 301.994V281.915V281.918ZM228.602 281.918V301.997L245.989 291.959L228.602 281.921V281.918ZM208.291 281.68L190.492 291.956L208.291 302.232V281.68ZM136.64 281.442V302.474L154.855 291.959L136.64 281.444V281.442ZM116.811 281.2L98.1806 291.956L116.811 302.712V281.2ZM92.6196 311.561V325.305L104.524 318.433L92.6196 311.561ZM1167.18 263.494L1163.75 265.476L1167.18 267.459V263.494ZM1101.56 258.604V272.349L1113.46 265.476L1101.56 258.604ZM1078.6 257.285L1064.41 265.476L1078.6 273.668V257.285ZM1008.48 255.907V275.043L1025.05 265.476L1008.48 255.91V255.907ZM987.689 255.671L970.709 265.474L987.689 275.276V255.671ZM916.872 256.139V274.808L933.04 265.474L916.872 256.139ZM895.497 256.601L880.128 265.474L895.497 274.346V256.601ZM825.953 257.729V273.221L839.369 265.476L825.953 257.732V257.729ZM802.872 258.386L790.596 265.474L802.872 272.561V258.383V258.386ZM734.779 258.817V272.133L746.311 265.474L734.779 258.814V258.817ZM710.933 258.817L699.401 265.476L710.933 272.136V258.819V258.817ZM642.73 258.168V272.779L655.384 265.474L642.73 258.168ZM619.872 257.506L606.073 265.474L619.872 273.442V257.506ZM549.983 256.139V274.808L566.151 265.474L549.983 256.139ZM529.195 255.436L511.808 265.474L529.195 275.511V255.433V255.436ZM457.297 254.232V276.715L476.768 265.474L457.297 254.232ZM438.329 253.741L418.009 265.474L438.329 277.206V253.741ZM364.951 252.994V277.95L386.564 265.471L364.951 252.991V252.994ZM347.111 252.744L325.061 265.474L347.111 278.203V252.744ZM272.974 252.491V278.456L295.46 265.474L272.974 252.491ZM255.518 252.491L233.032 265.474L255.518 278.456V252.491ZM181.125 252.238V278.709L204.05 265.474L181.125 252.238ZM164.053 251.982L140.686 265.474L164.053 278.965V251.982ZM89.0149 251.468V279.479L113.274 265.474L89.0149 251.468ZM68.9888 311.558L57.0847 318.43L68.9888 325.302V311.558ZM48.9859 342.444V347.369L53.2504 344.907L48.9859 342.444ZM1212.15 238.79L1211.79 238.994L1212.15 239.197V238.788V238.79ZM1147.53 232.337V245.654L1159.06 238.994L1147.53 232.334V232.337ZM1125.15 229.427L1108.58 238.994L1125.15 248.561V229.424V229.427ZM1052.87 226.517V251.474L1074.48 238.994L1052.87 226.514V226.517ZM1035.16 226.014L1012.67 238.997L1035.16 251.979V226.014ZM960.892 226.014V251.979L983.378 238.997L960.892 226.014ZM943.18 226.517L921.567 238.997L943.18 251.476V226.52V226.517ZM869.924 227.508V250.479L889.82 238.994L869.924 227.508ZM850.465 228.479L832.25 238.994L850.465 249.508V228.477V228.479ZM779.288 229.66V248.328L795.456 238.994L779.288 229.66ZM757.913 230.122L742.543 238.994L757.913 247.866V230.119V230.122ZM687.683 229.892V248.099L703.451 238.997L687.683 229.895V229.892ZM666.541 229.427L649.968 238.994L666.541 248.561V229.424V229.427ZM595.003 227.997V249.994L614.052 238.997L595.003 228V227.997ZM575.913 227.264L555.593 238.997L575.913 250.729V227.264ZM502.023 225.506V252.488L525.393 238.997L502.023 225.506ZM485.34 224.991L461.082 238.997L485.34 253.003V224.991ZM409.515 223.947V254.043L435.579 238.994L409.515 223.945V223.947ZM394.279 223.683L367.759 238.994L394.279 254.305V223.68V223.683ZM317.526 223.418V254.572L344.506 238.997L317.526 223.418ZM302.692 223.418L275.712 238.997L302.692 254.572V223.418ZM225.806 223.418V254.572L252.785 238.997L225.806 223.418ZM211.105 223.151L183.663 238.994L211.105 254.837V223.151ZM133.814 222.883V255.104L161.718 238.994L133.814 222.883ZM119.788 222.346L90.9539 238.994L119.788 255.642V222.346ZM72.8551 250.947L47.6981 265.471L72.8551 279.994V250.944V250.947ZM44.5528 280.709V303.192L64.0237 291.95L44.5528 280.709ZM20.5818 343.078L17.4162 344.907L20.5818 346.735V343.078ZM1194.9 208.837V216.197L1201.27 212.517L1194.9 208.837ZM1170.1 204.773L1156.68 212.517L1170.1 220.261V204.77V204.773ZM1098.09 198.77V226.264L1121.9 212.517L1098.09 198.77ZM1081.93 197.732L1056.32 212.517L1081.93 227.302V197.729V197.732ZM1005.44 196.942V228.096L1032.42 212.517L1005.44 196.939V196.942ZM990.476 197.206L963.956 212.517L990.476 227.828V197.203V197.206ZM914.256 197.994V227.043L939.413 212.52L914.256 197.997V197.994ZM897.965 198.77L874.154 212.517L897.965 226.264V198.77ZM178.995 195.055V229.982L209.242 212.517L178.995 195.052V195.055ZM166.064 195.055L135.817 212.52L166.064 229.985V195.058V195.055ZM86.8551 194.229V230.808L118.532 212.517L86.8551 194.227V194.229ZM75.0411 193.674L42.4016 212.52L75.0411 231.366V193.677V193.674ZM41.5499 221.805V256.186L71.326 238.994L41.5499 221.802V221.805ZM24.8522 281.674L7.05278 291.95L24.8522 302.226V281.674ZM1.64 313.014V323.84L11.015 318.427L1.64 313.014ZM1213.55 183.07L1208.41 186.038L1213.55 189.006V183.067V183.07ZM1144.97 174.305V197.77L1165.29 186.038L1144.97 174.305ZM1127.93 170.988L1101.87 186.038L1127.93 201.087V170.991V170.988ZM1050.36 168.572V203.5L1080.6 186.035L1050.36 168.57V168.572ZM1037.43 168.572L1007.18 186.038L1037.43 203.503V168.575V168.572ZM959.046 169.389V202.686L987.883 186.038L959.046 169.389ZM944.886 170.195L917.445 186.038L944.886 201.881V170.195ZM212.067 168.299L181.343 186.038L212.067 203.776V168.299ZM132.858 168.023V204.049L164.058 186.035L132.858 168.02V168.023ZM120.762 167.471L88.6021 186.038L120.762 204.604V167.471ZM40.5731 166.913V205.163L73.6981 186.038L40.5731 166.913ZM28.0702 222.346L-0.766975 238.994L28.0702 255.642V222.346ZM-2.05767 252.741V278.2L19.9917 265.471L-2.05767 252.741ZM-24.4327 314.927L-30.4937 318.427L-24.4327 321.927V314.93V314.927ZM1193.61 153.322V165.793L1204.41 159.558L1193.61 153.322ZM1171.74 148.561L1152.69 159.558L1171.74 170.555V148.558V148.561ZM1096.35 142.369V176.75L1126.13 159.558L1096.35 142.366V142.369ZM1083.7 141.27L1052.03 159.561L1083.7 177.852V141.273V141.27ZM1004.08 141.27V177.849L1035.75 159.558L1004.08 141.267V141.27ZM991.564 142.096L961.314 159.561L991.564 177.026V142.099V142.096ZM913.724 143.982V175.136L940.703 159.561L913.724 143.982ZM898.357 145.035L873.2 159.558L898.357 174.081V145.032V145.035ZM179.134 142.369V176.75L208.91 159.558L179.134 142.366V142.369ZM166.067 142.096L135.82 159.561L166.067 177.026V142.099V142.096ZM86.858 141.27V177.849L118.535 159.558L86.858 141.267V141.27ZM75.044 140.715L42.4045 159.561L75.044 178.407V140.718V140.715ZM29.3231 166.913L-3.80186 186.038L29.3231 205.163V166.913ZM-4.58674 194.776V230.253L26.1371 212.514L-4.58674 194.776ZM-21.0082 255.194L-38.8076 265.471L-21.0082 275.747V255.194ZM-44.3251 286.334V297.567L-34.5983 291.95L-44.3251 286.334ZM1214 129.218L1207.31 133.081L1214 136.945V129.218ZM1144.08 119.59V146.572L1167.45 133.081L1144.08 119.59ZM1128.73 116.433L1099.9 133.081L1128.73 149.729V116.433ZM1049.66 114.235V151.924L1082.3 133.078L1049.66 114.232V114.235ZM1038.12 114.235L1005.48 133.081L1038.12 151.927V114.238V114.235ZM958.907 116.163V150L988.212 133.081L958.907 116.163ZM945.017 116.971L917.113 133.081L945.017 149.192V116.971ZM225.265 116.433V149.729L254.102 133.081L225.265 116.433ZM211.512 116.433L182.675 133.081L211.512 149.729V116.433ZM133.268 115.889V150.27L163.044 133.078L133.268 115.886V115.889ZM120.201 115.616L89.9539 133.081L120.201 150.546V115.619V115.616ZM40.9917 114.791V151.369L72.669 133.078L40.9917 114.788V114.791ZM29.0353 114.514L-3.12453 133.081L29.0353 151.648V114.514ZM-5.01116 140.991V178.125L27.1487 159.558L-5.01116 140.991ZM-18.4705 197.2L-44.9908 212.511L-18.4705 227.822V197.197V197.2ZM1193.5 100.154V113.046L1204.67 106.599L1193.5 100.151V100.154ZM1171.86 95.3603L1152.39 106.602L1171.86 117.843V95.3603ZM1096.07 88.8632V124.34L1126.8 106.602L1096.07 88.8632ZM1083.98 87.7557L1051.34 106.602L1083.98 125.447V87.7586V87.7557ZM1004.07 88.3109V124.889L1035.75 106.599L1004.07 88.308V88.3109ZM991.561 89.1365L961.311 106.602L991.561 124.067V89.1394V89.1365ZM913.988 91.5522V121.648L940.052 106.599L913.988 91.5493V91.5522ZM165.652 89.9534L136.814 106.602L165.652 123.25V89.9534ZM87.2708 89.1365V124.064L117.518 106.599L87.2708 89.1336V89.1365ZM74.4801 88.8632L43.7562 106.602L74.4801 124.34V88.8632ZM-4.72918 88.5871V124.613L26.4714 106.599L-4.72918 88.5842V88.5871ZM-17.7931 142.907L-46.6361 159.552L-17.7989 176.2V142.904L-17.7931 142.907ZM1213.72 76.8022L1207.97 80.122L1213.72 83.4417V76.8022ZM1144.46 67.3923V92.8516L1166.51 80.122L1144.46 67.3923ZM1128.6 63.7441L1100.23 80.122L1128.6 96.4999V63.7411V63.7441ZM1049.79 61.5551V98.6888L1081.95 80.122L1049.79 61.5551ZM1037.98 61.5551L1005.82 80.122L1037.98 98.6888V61.5551ZM959.04 63.4737V96.7702L987.878 80.122L959.04 63.4737ZM225.535 64.0115V96.2324L253.439 80.122L225.535 64.0115ZM211.105 64.2789L183.663 80.122L211.105 95.965V64.2789ZM133.678 63.7441V96.5027L162.047 80.1249L133.678 63.747V63.7441ZM119.788 63.4737L90.9539 80.122L119.788 96.7702V63.4737ZM41.544 62.9301V97.3109L71.3202 80.119L41.544 62.9272V62.9301ZM28.4772 62.6569L-1.76988 80.122L28.4772 97.5871V62.6598V62.6569ZM-17.796 89.9504L-46.6361 106.596L-17.7989 123.244V89.9475L-17.796 89.9504ZM1194.42 49.0202V58.2644L1202.43 53.6423L1194.42 49.0202ZM1170.9 44.308L1154.73 53.6423L1170.9 62.9766V44.308ZM1096.9 37.5319V69.7528L1124.8 53.6423L1096.9 37.5319ZM1083.15 36.4505L1053.37 53.6423L1083.15 70.8342V36.4534V36.4505ZM1004.63 36.4505V70.8313L1034.4 53.6394L1004.63 36.4476V36.4505ZM991.011 37.2615L962.642 53.6394L991.011 70.0173V37.2586V37.2615ZM914.514 39.6336V67.6452L938.773 53.6394L914.514 39.6336ZM897.447 40.9098L875.398 53.6394L897.447 66.3691V40.9098ZM824.555 43.1249V64.1569L842.77 53.6423L824.555 43.1278V43.1249ZM804.128 44.0726L787.555 53.6394L804.128 63.2063V44.0697V44.0726ZM733.546 44.5377V62.7441L749.314 53.6423L733.546 44.5406V44.5377ZM712.288 44.3051L696.119 53.6394L712.288 62.9737V44.3051ZM640.991 42.8836V64.3952L659.622 53.6394L640.991 42.8836ZM621.904 41.6598L601.154 53.6394L621.904 65.6191V41.6598ZM547.628 39.6336V67.6452L571.887 53.6394L547.628 39.6336ZM531.599 38.8546L505.988 53.6394L531.599 68.4243V38.8516V38.8546ZM454.977 37.7964V69.4824L482.419 53.6394L454.977 37.7964ZM440.544 37.529L412.64 53.6394L440.544 69.7499V37.529ZM363.119 37.529V69.7499L391.023 53.6394L363.119 37.529ZM348.686 37.7964L321.244 53.6394L348.686 69.4824V37.7964ZM271.8 38.3284V68.9534L298.32 53.6423L271.8 38.3313V38.3284ZM256.564 38.5929L230.5 53.6423L256.564 68.6917V38.5958V38.5929ZM180.343 38.8546V68.4272L205.954 53.6423L180.343 38.8575V38.8546ZM164.84 38.5929L138.777 53.6423L164.84 68.6917V38.5958V38.5929ZM88.2213 38.0639V69.2179L115.201 53.6394L88.2213 38.0609V38.0639ZM73.5208 37.7964L46.0789 53.6394L73.5208 69.4824V37.7964ZM-3.49953 38.0639V69.2179L23.4801 53.6394L-3.49953 38.0609V38.0639ZM-18.9995 39.3778L-43.7059 53.6423L-18.9995 67.9069V39.3778ZM1212.41 26.436L1211.15 27.1656L1212.41 27.8953V26.436ZM1146.41 18.2935V36.0406L1161.78 27.1685L1146.41 18.2964V18.2935ZM1126.5 14.9389L1105.32 27.1685L1126.5 39.3982V14.9418V14.9389ZM1051.57 12.1191V42.215L1077.63 27.1656L1051.57 12.1162V12.1191ZM1036.33 11.8546L1009.81 27.1656L1036.33 42.4766V11.8517V11.8546ZM960.506 13.4185V40.9156L984.317 27.1685L960.506 13.4214V13.4185ZM943.308 14.436L921.258 27.1656L943.308 39.8952V14.436ZM870.538 16.8895V37.4418L888.337 27.1656L870.538 16.8895ZM849.753 18.0639L833.985 27.1656L849.753 36.2673V18.061V18.0639ZM780.093 19.4214V34.9127L793.509 27.1685L780.093 19.4243V19.4214ZM757.232 19.6424L744.201 27.1656L757.232 34.6889V19.6395V19.6424ZM688.145 18.9767V35.3604L702.334 27.1685L688.145 18.9767ZM666.192 18.2964L650.823 27.1685L666.192 36.0406V18.2935V18.2964ZM595.128 16.4127V37.9243L613.759 27.1685L595.128 16.4127ZM576.041 15.1889L555.291 27.1685L576.041 39.1482V15.1889ZM502.026 13.6772V40.6598L525.395 27.1685L502.026 13.6772ZM485.343 13.1627L461.084 27.1685L485.343 41.1743V13.1627ZM409.913 12.904V41.433L434.619 27.1685L409.913 12.904ZM393.75 12.904L369.044 27.1685L393.75 41.433V12.904ZM318.451 13.4214V40.9185L342.262 27.1714L318.451 13.4243V13.4214ZM301.509 13.9331L278.585 27.1685L301.509 40.404V13.9331ZM227.244 14.4389V39.8982L249.294 27.1685L227.244 14.4389ZM209.532 14.4389L187.483 27.1685L209.532 39.8982V14.4389ZM135.524 14.4389V39.8982L157.573 27.1685L135.524 14.4389ZM117.939 14.186L95.4539 27.1685L117.939 40.1511V14.186ZM43.5469 13.9331V40.404L66.4713 27.1685L43.5469 13.9331ZM26.2185 14.186L3.73302 27.1685L26.2185 40.1511V14.186ZM-46.8105 16.6453V37.6772L-28.5954 27.1627L-46.8105 16.6453ZM1196.5 0.183075V1.18307L1197.36 0.683075L1196.5 0.183075ZM1168.13 -3.1803L1161.44 0.683075L1168.13 4.54644V-3.1803ZM1100.08 -9.11925V10.4854L1117.05 0.683075L1100.08 -9.11925ZM1080.13 -10.5582L1060.66 0.683075L1080.13 11.9243V-10.5582ZM1007.38 -11.0495V12.4156L1027.7 0.683075L1007.38 -11.0495ZM988.29 -10.3169L969.241 0.680168L988.29 11.6772V-10.3198V-10.3169ZM916.988 -8.42158V9.78481L932.756 0.683075L916.988 -8.41867V-8.42158ZM895.151 -7.50878L880.962 0.683075L895.151 8.87492V-7.50878ZM826.715 -5.55239V6.91853L837.517 0.683075L826.715 -5.55239ZM802.128 -4.9332L792.401 0.683075L802.128 6.29935V-4.9332ZM735.509 -4.52914V5.89528L744.538 0.683075L735.509 -4.52914ZM710.404 -4.9332L700.677 0.683075L710.404 6.29935V-4.9332ZM642.837 -6.40414V7.77318L655.113 0.685974L642.837 -6.40123V-6.40414ZM619.869 -7.28204L606.07 0.685974L619.869 8.65399V-7.28204ZM549.744 -9.11634V10.4883L566.724 0.685974L549.744 -9.11634ZM529.436 -9.82855L511.224 0.685974L529.436 11.2005V-9.83146V-9.82855ZM457.297 -10.5553V11.9273L476.768 0.685974L457.297 -10.5553ZM438.204 -10.7995L418.308 0.685974L438.204 12.1714V-10.8024V-10.7995ZM365.573 -10.5553V11.9273L385.044 0.685974L365.573 -10.5553ZM346.233 -10.3111L327.183 0.685974L346.233 11.6831V-10.314V-10.3111ZM274.337 -9.59018V10.9621L292.137 0.685974L274.337 -9.59018ZM254.026 -9.35181L236.64 0.685974L254.026 10.7238V-9.35471V-9.35181ZM182.974 -8.88087V10.2557L199.547 0.688889L182.974 -8.87797V-8.88087ZM162.067 -8.88087L145.495 0.685974L162.067 10.2528V-8.88378V-8.88087ZM91.1341 -9.11634V10.4883L108.114 0.685974L91.1341 -9.11634ZM70.4655 -9.11634L53.4859 0.685974L70.4655 10.4883V-9.11634ZM-0.232094 -8.41576V9.79062L15.5353 0.688889L-0.232094 -8.41286V-8.41576ZM-22.1827 -7.27914L-35.9821 0.688889L-22.1827 8.65691V-7.27914ZM1149.81 -27.9303V-23.6512L1153.52 -25.7907L1149.81 -27.9303ZM1122.65 -30.4128L1114.65 -25.7907L1122.65 -21.1687V-30.4128ZM1055.48 -33.096V-18.4855L1068.13 -25.7907L1055.48 -33.096ZM1032.51 -33.5349L1019.09 -25.7907L1032.51 -18.0466V-33.5378V-33.5349ZM963.977 -32.6628V-18.9187L975.881 -25.7907L963.977 -32.6628ZM940.026 -32.0262L929.224 -25.7907L940.026 -19.5553V-32.0262ZM873.491 -30.2181V-21.3605L881.163 -25.7907L873.491 -30.221V-30.2181ZM847.014 -29.4681L840.639 -25.7878L847.014 -22.1076V-29.4681ZM782.593 -28.5843V-22.9884L787.439 -25.7849L782.593 -28.5814V-28.5843ZM754.761 -28.4157L750.209 -25.7878L754.761 -23.1599V-28.4187V-28.4157ZM690.607 -29.1076V-22.4681L696.357 -25.7878L690.607 -29.1076ZM663.756 -29.8373L656.741 -25.7878L663.756 -21.7384V-29.8402V-29.8373ZM597.724 -31.4041V-20.1716L607.451 -25.7878L597.724 -31.4041ZM573.244 -32.2355L562.079 -25.7878L573.244 -19.3402V-32.2326V-32.2355ZM505.038 -33.314V-18.2646L518.07 -25.7878L505.038 -33.3111V-33.314ZM482.291 -33.7559L468.491 -25.7878L482.291 -17.8198V-33.7559ZM413.093 -33.7559V-17.8198L426.893 -25.7878L413.093 -33.7559ZM390.57 -33.7559L376.771 -25.7878L390.57 -17.8198V-33.7559ZM321.707 -33.0931V-18.4826L334.361 -25.7878L321.707 -33.0931ZM298.404 -32.875L286.128 -25.7878L298.404 -18.7006V-32.8779V-32.875ZM230.419 -32.2326V-19.3402L241.585 -25.7878L230.419 -32.2355V-32.2326ZM206.253 -32.0233L195.451 -25.7878L206.253 -19.5524V-32.0233ZM138.91 -31.814V-19.7588L149.349 -25.7878L138.91 -31.814ZM114.425 -31.814L103.986 -25.7878L114.425 -19.7588V-31.814ZM47.1865 -31.814V-19.7588L57.6254 -25.7878L47.1865 -31.814ZM22.3929 -31.2006L13.0179 -25.7878L22.3929 -20.375V-31.2006ZM-43.1681 -29.1076V-22.4681L-37.4181 -25.7878L-43.1681 -29.1076ZM1103.95 -54.4041V-50.125L1107.66 -52.2646L1103.95 -54.4041ZM1076.05 -55.407L1070.6 -52.2646L1076.05 -49.1221V-55.407ZM1011.26 -56.314V-48.2151L1018.28 -52.2646L1011.26 -56.314ZM984.596 -55.9448L978.221 -52.2646L984.596 -48.5843V-55.9448ZM920.261 -54.8925V-49.6337L924.814 -52.2617L920.261 -54.8896V-54.8925ZM892.017 -54.2471L888.584 -52.2646L892.017 -50.282V-54.2471ZM829.372 -53.2442V-51.2849L831.067 -52.2646L829.372 -53.2442ZM799.66 -52.9942L798.398 -52.2646L799.66 -51.5349V-52.9942ZM737.776 -52.9942V-51.5349L739.038 -52.2646L737.776 -52.9942ZM708.064 -53.2442L706.369 -52.2646L708.064 -51.2849V-53.2442ZM645.419 -54.2471V-50.282L648.852 -52.2646L645.419 -54.2471ZM617.174 -54.8925L612.622 -52.2646L617.174 -49.6367V-54.8954V-54.8925ZM552.747 -56.1279V-48.4012L559.439 -52.2646L552.747 -56.1279ZM526.268 -56.5029L518.927 -52.2646L526.268 -48.0262V-56.5029ZM460.544 -57.0814V-47.4477L468.887 -52.2646L460.544 -57.0814ZM434.837 -57.0814L426.494 -52.2646L434.837 -47.4477V-57.0814ZM368.922 -56.8866V-47.6425L376.928 -52.2646L368.922 -56.8866ZM342.919 -56.6948L335.247 -52.2646L342.919 -47.8343V-56.6919V-56.6948ZM277.675 -55.9448V-48.5843L284.05 -52.2646L277.675 -55.9448ZM250.727 -55.7646L244.666 -52.2646L250.727 -48.7646V-55.7616V-55.7646ZM186.224 -55.4099V-49.125L191.669 -52.2675L186.224 -55.4099ZM158.739 -55.2355L153.596 -52.2675L158.739 -49.2994V-55.2384V-55.2355ZM94.5905 -55.2355V-49.2965L99.7329 -52.2646L94.5905 -55.2326V-55.2355ZM66.9306 -55.064L62.0847 -52.2675L66.9306 -49.471V-55.0669V-55.064ZM3.44523 -54.096V-50.439L6.61093 -52.2675L3.44523 -54.096ZM-25.7117 -53.2471L-27.4065 -52.2675L-25.7117 -51.2878V-53.2471ZM1059.14 -78.8052V-78.6977L1059.23 -78.7529L1059.14 -78.8081V-78.8052ZM1028.74 -79.0465L1028.23 -78.75L1028.74 -78.4535V-79.0436V-79.0465ZM967.34 -78.9564V-78.5465L967.694 -78.75L967.34 -78.9535V-78.9564ZM936.898 -78.8052L936.805 -78.75L936.898 -78.6948V-78.8023V-78.8052ZM600.454 -78.9564V-78.5465L600.808 -78.75L600.454 -78.9535V-78.9564ZM570.291 -79.3634L569.23 -78.7529L570.291 -78.1424V-79.3634ZM508.273 -79.8634V-77.6424L510.198 -78.7529L508.273 -79.8634ZM478.89 -80L476.73 -78.7529L478.89 -77.5058V-79.9971V-80ZM416.483 -80V-77.5058L418.643 -78.7529L416.483 -80ZM387.099 -79.8634L385.175 -78.7529L387.099 -77.6424V-79.8605V-79.8634ZM325.021 -79.4826V-78.0233L326.282 -78.7529L325.021 -79.4826ZM295.067 -79.2529L294.201 -78.7529L295.067 -78.2529V-79.2529ZM233.564 -78.9564V-78.5465L233.919 -78.75L233.564 -78.9535V-78.9564ZM203.157 -78.875L202.942 -78.7529L203.157 -78.6308V-78.8779V-78.875ZM141.945 -78.7558V-78.7471L141.954 -78.7529L141.945 -78.7587V-78.7558ZM111.375 -78.7558L111.367 -78.75L111.375 -78.7442V-78.7529V-78.7558Z" fill="#232323" fill-opacity="0.06"/>
</svg>
