<svg width="19" height="16" viewBox="0 0 19 16" fill="none" xmlns="http://www.w3.org/2000/svg">
<path d="M0.265259 13.5632C1.92645 14.678 3.9568 15.3283 6.17173 15.3283C13.278 15.3283 17.3387 9.28988 17.0618 3.80885C17.8001 3.25146 18.4461 2.60117 18.9998 1.85798C18.3538 2.13667 17.6155 2.41537 16.7849 2.50827C17.6155 2.04377 18.1692 1.30058 18.4461 0.371595C17.7078 0.836089 16.8772 1.11479 16.0466 1.30058C15.3083 0.464494 14.2931 0 13.1857 0C10.7862 0 8.94039 2.32247 9.49412 4.73784C6.26402 4.55204 3.49536 3.06566 1.5573 0.74319C0.542125 2.41537 1.00357 4.73784 2.75705 5.85262C2.11103 5.85262 1.5573 5.66682 1.00357 5.38813C1.00357 7.15321 2.20332 8.82538 4.04909 9.19698C3.49536 9.38278 2.94163 9.38278 2.29561 9.28988C2.75705 10.8692 4.23367 11.9839 5.89486 11.9839C4.32596 13.2845 2.29561 13.8419 0.265259 13.5632Z" fill="white"/>
</svg>
